
<svg width="719px" height="788px" viewBox="0 0 719 788" version="1.1" xmlns="http://www.w3.org/2000/svg" xmlns:xlink="http://www.w3.org/1999/xlink">
    <!-- Generator: Sketch 43.2 (39069) - http://www.bohemiancoding.com/sketch -->
    <desc>Created with Sketch.</desc>
    <defs></defs>
    <g id="Page-1" stroke="none" stroke-width="1" fill="none" fill-rule="evenodd">
        <g id="Group-17" transform="translate(10.000000, -51.000000)">
            <g id="Group-15" transform="translate(132.000000, 0.000000)">
                <g id="Group-14" transform="translate(300.500000, 313.500000) rotate(45.000000) translate(-300.500000, -313.500000) translate(186.000000, 28.000000)">
                    <polygon id="Polygon" fill="#9549AD" points="114.5 3 228.151254 219.623172 184.740338 570.126828 44.2596624 570.126828 0.848746303 219.623172"></polygon>
                    <polygon id="Triangle-3" fill="#FFFFFF" points="114.5 0 228 219 1 219"></polygon>
                </g>
                <rect id="Rectangle-8" fill="#9549AD" transform="translate(69.899495, 540.899495) rotate(45.000000) translate(-69.899495, -540.899495) " x="-0.953318806" y="512.899495" width="141.705627" height="56" rx="8"></rect>
                <g id="Group-13" transform="translate(454.500000, 173.500000) rotate(45.000000) translate(-454.500000, -173.500000) translate(332.000000, 51.000000)">
                    <circle id="Oval-6" fill="#9549AD" cx="122.5" cy="122.5" r="122.5"></circle>
                    <path d="M0.5,125.5 L244.502049,125.5" id="Line" stroke="#FFFFFF" stroke-width="5" stroke-linecap="square"></path>
                </g>
            </g>
            <g id="Group-16" transform="translate(0.000000, 488.000000)" stroke="#9549AD" stroke-width="20">
                <path d="M162.5,86.5 L63,182" id="Line" stroke-linecap="square"></path>
                <path d="M224,252 L443.5,49.5" id="Line" stroke-linecap="square"></path>
                <path d="M427,237 L535,133" id="Line" stroke-linecap="square"></path>
                <path d="M59.2851563,185.878906 C59.2851563,185.878906 42.8183771,199.42959 25.109375,220.515625 C7.4003729,241.60166 9.18028666,240.578791 3.94921875,252.628906 C-9.03776786,282.5453 17.8671875,324.097656 50.7734375,336.3125 C83.6796875,348.527344 116.890866,328.691318 145.953125,311.742188 C190.132813,285.976562 222.699219,252.628906 222.699219,252.628906" id="Path-2"></path>
                <path d="M449.203125,44.2773437 L488.685547,10.6914062 C488.685547,10.6914062 530.117188,-19.5175781 570.427734,21.8046875 C610.738281,63.1269531 581.107422,87.7929687 581.107422,87.7929687 L540.292969,128.013672" id="Path-3"></path>
            </g>
        </g>
    </g>
</svg>