<svg xmlns="http://www.w3.org/2000/svg" xmlns:xlink="http://www.w3.org/1999/xlink" width="596.718" height="704.2" viewBox="0 0 596.718 704.2">
  <defs>
    <clipPath id="clip-path">
      <rect id="Rectangle_49" data-name="Rectangle 49" width="286" height="378" transform="translate(0 5210)" fill="#fff" stroke="#707070" stroke-width="1"/>
    </clipPath>
  </defs>
  <g id="Group_108" data-name="Group 108" transform="translate(0 -5274)">
    <g id="Group_106" data-name="Group 106" transform="translate(0 19)">
      <path id="Path_236" data-name="Path 236" d="M145.046,3609.007s84.107-132.339,204.143-18.07,123.819,54.339,195.841,72.768,85.868,171.812-136.747,129.421c-42.148-8.026-52.189-15.619-67.885-19.535-37.435-9.339-35.187-7.756-66.908-14.652-44.931-9.767-89.374,6.838-122.584-35.162S145.046,3609.007,145.046,3609.007Z" transform="translate(4.543 2158.699)" fill="#9549ad" opacity="0.04"/>
      <g id="Group_105" data-name="Group 105" transform="translate(227.5 5510)">
        <g id="Chair" transform="translate(198.686 153.844)">
          <g id="Group_69" data-name="Group 69">
            <path id="Path_128" data-name="Path 128" d="M381.14,404.847l-35.806-3.519V351.006H331.143v50.308l-35.952,3.533a6.971,6.971,0,0,0-6.29,6.938v5.376h98.529v-5.376A6.972,6.972,0,0,0,381.14,404.847Z" transform="translate(-283.412 -202.367)" fill="#716f6f"/>
            <circle id="Ellipse_5" data-name="Ellipse 5" cx="9.278" cy="9.278" r="9.278" transform="translate(0 212.186)" fill="#2a2a2a"/>
            <circle id="Ellipse_6" data-name="Ellipse 6" cx="9.278" cy="9.278" r="9.278" transform="translate(90.951 212.186)" fill="#2a2a2a"/>
            <path id="Rectangle_29" data-name="Rectangle 29" d="M0,0H19.079a0,0,0,0,1,0,0V40.688a4.133,4.133,0,0,1-4.133,4.133H4.133A4.133,4.133,0,0,1,0,40.688V0A0,0,0,0,1,0,0Z" transform="translate(45.287 114.634)" fill="#2a2a2a"/>
            <path id="Path_130" data-name="Path 130" d="M359.022,260.35s2.7,67.1-15.978,78.658h21.329s16.527-22.861,11.856-78.658Z" transform="translate(-270.269 -224.374)" fill="#716f6f"/>
            <path id="Path_235" data-name="Path 235" d="M0,0H95.594V8.313a6.214,6.214,0,0,1-6.214,6.214H6.214A6.214,6.214,0,0,1,0,8.313Z" transform="translate(101.369 119.776) rotate(180)" fill="#2a2a2a"/>
            <g id="Group_68" data-name="Group 68" transform="translate(1.791 112.513)">
              <rect id="Rectangle_32" data-name="Rectangle 32" width="103.563" height="7.263" rx="2.011" transform="translate(103.563 7.263) rotate(180)" fill="#716f6f"/>
            </g>
            <rect id="Rectangle_34" data-name="Rectangle 34" width="70.417" height="49.61" rx="14.584" transform="translate(58.896)" fill="#2a2a2a"/>
          </g>
        </g>
        <g id="Character" transform="translate(122.447 66.303)">
          <g id="Group_86" data-name="Group 86">
            <path id="Path_132" data-name="Path 132" d="M268.562,193.668l-6.819-17.983s2.924-2.707.918-5.453-14.59-10.471-16.884-9.113-7.387,6.478-4.634,9.319,14.945,7.583,14.945,7.583l6.03,23.595Z" transform="translate(-218.96 -160.96)" fill="#e4897b"/>
            <g id="Group_70" data-name="Group 70" transform="translate(36.812 20.171)">
              <path id="Path_133" data-name="Path 133" d="M313.069,223.778s-31.032-6.379-34.4-7.9-15.857-38.108-15.857-38.108l-9.574,4.474s7.706,36.712,15.588,45.443,41.5,16.114,41.5,16.114Z" transform="translate(-252.642 -177.051)" fill="#9549ad"/>
              <path id="Path_134" data-name="Path 134" d="M310.322,243.794s-.2-.041-.569-.132c-1.7-.382-7-1.633-13.3-3.475-10.234-2.971-23.121-7.515-27.626-12.5-7.869-8.735-15.585-45.45-15.585-45.45l9.572-4.469s12.492,36.585,15.869,38.107,34.393,7.9,34.393,7.9Z" transform="translate(-252.643 -177.051)" opacity="0.2" style="isolation: isolate"/>
              <path id="Path_135" data-name="Path 135" d="M263.084,177.191,265.063,181l-12.3,4.237.475-4.662Z" transform="translate(-252.759 -177.191)" fill="#9549ad"/>
            </g>
            <path id="Path_136" data-name="Path 136" d="M302.006,232.841c-1.722-.249-7.1-1.085-13.532-2.433,3.666-6.329,14.4-9.584,14.4-9.584Z" transform="translate(-207.277 -146.428)" opacity="0.2" style="isolation: isolate"/>
            <path id="Path_137" data-name="Path 137" d="M345.645,196.741s1.824,17.187-4.544,21.408-37.689-.723-41.242-7.637,9.816-25.69,9.816-25.69Z" transform="translate(-204.659 -155.168)" fill="#2a2a2a"/>
            <path id="Path_138" data-name="Path 138" d="M234.593,380.995l8.172,1.968,4.136-11.281,3.755-10.261-9.308-3.97L237.77,369.9Z" transform="translate(-220.357 -113.262)" fill="#e4897b"/>
            <path id="Path_139" data-name="Path 139" d="M237.149,369.9l9.131,1.779,3.755-10.261-9.308-3.97Z" transform="translate(-219.736 -113.262)" opacity="0.2" style="isolation: isolate"/>
            <g id="Group_71" data-name="Group 71" transform="translate(18.234 135.053)">
              <path id="Path_140" data-name="Path 140" d="M237.81,385.265l11.334,4.213s30.236-75.6,36.45-75.858,69.482,28.819,85.34,12.689-7.071-54.979-7.071-54.979-38.14-5.443-41.011,3.169a60.393,60.393,0,0,0-1.616,7.73c-.435,2.635-.733,4.847-.733,4.847a.039.039,0,0,1-.025-.012c-1.181-.3-39.47-10.178-54.557.012C250.6,297.44,237.81,385.265,237.81,385.265Z" transform="translate(-237.81 -269.633)" fill="#9549ad"/>
              <path id="Path_141" data-name="Path 141" d="M237.81,385.265l11.334,4.213s30.236-75.6,36.45-75.858,69.482,28.819,85.34,12.689-7.071-54.979-7.071-54.979-38.14-5.443-41.011,3.169a60.393,60.393,0,0,0-1.616,7.73c-.435,2.635-.733,4.847-.733,4.847a.039.039,0,0,1-.025-.012c-1.181-.3-39.47-10.178-54.557.012C250.6,297.44,237.81,385.265,237.81,385.265Z" transform="translate(-237.81 -269.633)" fill="#fff" opacity="0.6" style="isolation: isolate"/>
            </g>
            <path id="Path_142" data-name="Path 142" d="M291.233,407.126l8.143-2.085-1.567-11.682-1.455-10.714-10.069.9,2.615,12.484Z" transform="translate(-207.808 -107.145)" fill="#e4897b"/>
            <path id="Path_143" data-name="Path 143" d="M288.961,396.261l8.9-2.7-1.483-10.826-10.084.847Z" transform="translate(-207.805 -107.124)" opacity="0.2" style="isolation: isolate"/>
            <path id="Path_144" data-name="Path 144" d="M254.059,363.791l-16.508-5.612-.705,6.764,12.521,4.426Z" transform="translate(-219.81 -113.085)" fill="#9549ad"/>
            <g id="Group_72" data-name="Group 72" transform="translate(50.382 173.921)">
              <path id="Path_145" data-name="Path 145" d="M337.264,322.6s-2.582.061-42.588-1.8c0,0,5.979,50.015,9.24,87.455l-11.963,2.039s-28.583-80.174-28.273-92.912,14.913-16.467,14.913-16.467S307.095,317.374,337.264,322.6Z" transform="translate(-263.678 -300.908)" fill="#9549ad"/>
              <path id="Path_146" data-name="Path 146" d="M337.264,322.6s-2.582.061-42.588-1.8c0,0,5.979,50.015,9.24,87.455l-11.963,2.039s-28.583-80.174-28.273-92.912,14.913-16.467,14.913-16.467S307.095,317.374,337.264,322.6Z" transform="translate(-263.678 -300.908)" fill="#fff" opacity="0.6" style="isolation: isolate"/>
              <path id="Path_147" data-name="Path 147" d="M337.264,322.6s-2.582.061-42.588-1.8c0,0,5.979,50.015,9.24,87.455l-11.963,2.039s-28.583-80.174-28.273-92.912,14.913-16.467,14.913-16.467S307.095,317.374,337.264,322.6Z" transform="translate(-263.678 -300.908)" opacity="0.1" style="isolation: isolate"/>
            </g>
            <path id="Path_148" data-name="Path 148" d="M300.676,384.361l-16.442,1.87,3.172,6.445,13.31-1.707Z" transform="translate(-208.306 -106.729)" fill="#9549ad"/>
            <path id="Path_149" data-name="Path 149" d="M304.35,284.615l22.307,4.648s-12.328-6.81-21.574-9.495C304.648,282.4,304.35,284.615,304.35,284.615Z" transform="translate(-203.423 -132.119)" opacity="0.1" style="isolation: isolate"/>
            <g id="Group_74" data-name="Group 74" transform="translate(102.189 130.222)">
              <g id="Group_73" data-name="Group 73" transform="translate(0 0.599)">
                <path id="Path_150" data-name="Path 150" d="M346.542,266.227l.918,5.933-41.01,3.162-1.085-7.017Z" transform="translate(-305.365 -266.227)" fill="#263238"/>
                <path id="Path_151" data-name="Path 151" d="M346.542,266.227l.918,5.933-41.01,3.162-1.085-7.017Z" transform="translate(-305.365 -266.227)" opacity="0.2" style="isolation: isolate"/>
              </g>
              <rect id="Rectangle_35" data-name="Rectangle 35" width="2.037" height="10.375" transform="matrix(-0.995, 0.102, -0.102, -0.995, 30.273, 10.321)" fill="#9549ad"/>
              <rect id="Rectangle_36" data-name="Rectangle 36" width="9.003" height="6.828" transform="translate(19.017 8.911) rotate(176.323)" fill="#fff"/>
              <rect id="Rectangle_37" data-name="Rectangle 37" width="2.037" height="10.375" transform="translate(5.092 11.432) rotate(174.126)" fill="#9549ad"/>
              <rect id="Rectangle_38" data-name="Rectangle 38" width="2.037" height="10.375" transform="matrix(-0.995, 0.102, -0.102, -0.995, 30.273, 10.321)" fill="#fff" opacity="0.6" style="isolation: isolate"/>
              <rect id="Rectangle_39" data-name="Rectangle 39" width="2.037" height="10.375" transform="translate(5.092 11.432) rotate(174.126)" fill="#fff" opacity="0.6" style="isolation: isolate"/>
            </g>
            <path id="Path_152" data-name="Path 152" d="M301.285,214.335a74.6,74.6,0,0,0,23.629,2.609c13.158-.676,28.89,5.715,28.89,5.715l-5.648,56.165L306.978,280.9S293.143,234,301.285,214.335Z" transform="translate(-204.79 -148.003)" fill="#9549ad"/>
            <path id="Path_153" data-name="Path 153" d="M306.107,192.629s2.314-27.275,25.114-17.364c28.617,12.44,5.861,45.66-8.119,38.84S306.107,192.629,306.107,192.629Z" transform="translate(-202.996 -158.014)" fill="#2a2a2a"/>
            <path id="Path_154" data-name="Path 154" d="M311.25,218.041l.655,15.411,5.114-7.25s-1.826,17.046-.757,26.327c0,0,.977-16.643,3.293-26.327l5.427,7.25,7.8-15.317S320.163,213.6,311.25,218.041Z" transform="translate(-201.748 -147.577)" opacity="0.2" style="isolation: isolate"/>
            <path id="Path_155" data-name="Path 155" d="M317.773,223.778l11.789-3.331c-7.264-5-3.6-16.178-3.6-16.178l-11.678,4.106a35.735,35.735,0,0,1,1.254,4.99c1.22,7.284-2.069,7.867-2.069,7.867Z" transform="translate(-201.21 -150.447)" fill="#e4897b"/>
            <path id="Path_156" data-name="Path 156" d="M314.123,208.375a35.73,35.73,0,0,1,1.254,4.99c5.589-2.241,10.424-9.1,10.424-9.1Z" transform="translate(-201.05 -150.447)" opacity="0.2" style="isolation: isolate"/>
            <g id="Group_78" data-name="Group 78" transform="translate(99.142 15.12)">
              <path id="Path_157" data-name="Path 157" d="M324.169,179.558c-10.343-2.289-14.9,2.512-18.015,13-3.895,13.111-3.035,23.228,10.527,23.246C335.1,215.831,341.346,183.36,324.169,179.558Z" transform="translate(-302.616 -171.702)" fill="#e4897b"/>
              <path id="Path_158" data-name="Path 158" d="M312.017,190.638a22.461,22.461,0,0,1-3.959,3.624,2.91,2.91,0,0,0,2.467,1.772Z" transform="translate(-301.664 -168.876)" fill="#de5753"/>
              <g id="Group_75" data-name="Group 75" transform="translate(16.803 19.962)">
                <path id="Path_159" data-name="Path 159" d="M316.5,191.338c-.208.846.081,1.643.644,1.782s1.189-.434,1.4-1.28-.08-1.642-.644-1.781S316.71,190.493,316.5,191.338Z" transform="translate(-316.434 -188.984)" fill="#263238"/>
                <path id="Path_160" data-name="Path 160" d="M318.117,190.363l-1.66-1.173S316.991,190.962,318.117,190.363Z" transform="translate(-316.428 -189.19)" fill="#263238"/>
              </g>
              <g id="Group_76" data-name="Group 76" transform="translate(6.339 17.202)">
                <path id="Path_161" data-name="Path 161" d="M308.081,189.117c-.208.845.081,1.643.644,1.782s1.189-.435,1.4-1.28-.081-1.643-.644-1.781S308.289,188.272,308.081,189.117Z" transform="translate(-308.014 -186.763)" fill="#263238"/>
                <path id="Path_162" data-name="Path 162" d="M309.7,188.142l-1.66-1.173S308.571,188.741,309.7,188.142Z" transform="translate(-308.008 -186.969)" fill="#263238"/>
              </g>
              <path id="Path_163" data-name="Path 163" d="M317.844,185.356s2.99.265,4.14,2.556" transform="translate(-299.289 -170.158)" fill="none" stroke="#263238" stroke-linecap="round" stroke-linejoin="round" stroke-width="0.725"/>
              <path id="Path_164" data-name="Path 164" d="M312.714,183.762a4.945,4.945,0,0,0-4.31-.062" transform="translate(-301.58 -170.666)" fill="none" stroke="#263238" stroke-linecap="round" stroke-linejoin="round" stroke-width="0.725"/>
              <path id="Path_165" data-name="Path 165" d="M331.137,200.2s-2.955-9.569-.771-15.967c0,0-18.645-12.91-24.26,7.67,0,0,2.085-18.916,19.957-15.393,17.842,3.517,12.039,29.519,1.141,35.237C327.205,211.75,332.953,206.179,331.137,200.2Z" transform="translate(-302.138 -172.411)" fill="#263238"/>
              <path id="Path_166" data-name="Path 166" d="M324.6,197.592a4.65,4.65,0,0,1,5.8-3.066c3.128,1.06,3.2,7.979-5.123,7.8C324.082,202.3,323.685,201.035,324.6,197.592Z" transform="translate(-297.771 -167.991)" fill="#e4897b"/>
              <g id="Group_77" data-name="Group 77" transform="translate(7.01 30.423)">
                <path id="Path_167" data-name="Path 167" d="M308.554,198.272a26.754,26.754,0,0,1,.536,3.845c.227.025.455.05.682.063,3.088.262,4.607-.636,5.355-1.713a4,4,0,0,0,.644-1.778,3.854,3.854,0,0,0,0-1.082c-1.72.839-4.618.815-6.165.738C308.96,198.32,308.554,198.272,308.554,198.272Z" transform="translate(-308.554 -197.607)" fill="#263238"/>
                <path id="Path_168" data-name="Path 168" d="M309.4,198.345l.188,1.13c2.909.24,4.99.019,5.975-.785a3.852,3.852,0,0,0,0-1.082C313.847,198.446,310.949,198.422,309.4,198.345Z" transform="translate(-308.348 -197.607)" fill="#fff"/>
                <path id="Path_169" data-name="Path 169" d="M309.534,201.624c3.088.262,4.607-.636,5.355-1.713a9.982,9.982,0,0,0-3.487.389A3.733,3.733,0,0,0,309.534,201.624Z" transform="translate(-308.316 -197.051)" fill="#de5753"/>
              </g>
              <path id="Path_170" data-name="Path 170" d="M324.507,181.811s.4,17.942,11.165,20.1-1-23.056-1-23.056-16.029-10.469-26.712-3.091-1.075,16.862-1.075,16.862S309.139,179.3,324.507,181.811Z" transform="translate(-302.913 -173.127)" fill="#2a2a2a"/>
              <path id="Path_171" data-name="Path 171" d="M320.778,179.161s-3.836,11.341,3.739,17.3" transform="translate(-298.812 -171.662)" fill="none" stroke="#263238" stroke-linecap="round" stroke-linejoin="round" stroke-width="0.5"/>
            </g>
            <g id="Group_83" data-name="Group 83" transform="translate(109.573 16.403)">
              <path id="Path_172" data-name="Path 172" d="M334.008,201c-1.37,3.647-4.887,5.7-7.854,4.588s-4.264-4.975-2.894-8.624,4.887-5.7,7.854-4.588S335.378,197.35,334.008,201Z" transform="translate(-308.537 -169.81)" fill="#9549ad"/>
              <path id="Path_173" data-name="Path 173" d="M334.008,201c-1.37,3.647-4.887,5.7-7.854,4.588s-4.264-4.975-2.894-8.624,4.887-5.7,7.854-4.588S335.378,197.35,334.008,201Z" transform="translate(-308.537 -169.81)" opacity="0.4" style="isolation: isolate"/>
              <path id="Path_174" data-name="Path 174" d="M330.127,199.365s4.456-19.971-5.545-25.206a29.45,29.45,0,0,1,3.377.657c1.292.377,9.283,8.476,5.244,26.425Z" transform="translate(-308.084 -174.159)" fill="#9549ad"/>
              <path id="Path_175" data-name="Path 175" d="M330.127,199.365s4.456-19.971-5.545-25.206a29.45,29.45,0,0,1,3.377.657c1.292.377,9.283,8.476,5.244,26.425Z" transform="translate(-308.084 -174.159)" opacity="0.2" style="isolation: isolate"/>
              <g id="Group_81" data-name="Group 81" transform="translate(2.537 31.95)">
                <g id="Group_79" data-name="Group 79">
                  <path id="Path_176" data-name="Path 176" d="M314.1,204.553q-.371-.048-.748-.112l.2-1.225a22.827,22.827,0,0,0,15.776-3.348l.733,1A23.5,23.5,0,0,1,314.1,204.553Z" transform="translate(-313.348 -199.868)" fill="#9549ad"/>
                </g>
                <g id="Group_80" data-name="Group 80" opacity="0.2" style="isolation: isolate">
                  <path id="Path_177" data-name="Path 177" d="M314.1,204.553q-.371-.048-.748-.112l.2-1.225a22.827,22.827,0,0,0,15.776-3.348l.733,1A23.5,23.5,0,0,1,314.1,204.553Z" transform="translate(-313.348 -199.868)"/>
                </g>
              </g>
              <path id="Path_178" data-name="Path 178" d="M332.923,200.006c-.906,2.412-3.23,3.769-5.192,3.034s-2.82-3.29-1.914-5.7,3.23-3.771,5.192-3.034S333.827,197.593,332.923,200.006Z" transform="translate(-307.872 -169.317)" fill="#9549ad"/>
              <g id="Group_82" data-name="Group 82" transform="translate(0 34.219)">
                <path id="Path_179" data-name="Path 179" d="M313.479,204.518l-1-.132a1.352,1.352,0,0,1-1.164-1.516h0a1.352,1.352,0,0,1,1.517-1.164l1,.13A1.353,1.353,0,0,1,315,203.353h0A1.352,1.352,0,0,1,313.479,204.518Z" transform="translate(-311.307 -201.693)" fill="#9549ad"/>
                <path id="Path_180" data-name="Path 180" d="M313.479,204.518l-1-.132a1.352,1.352,0,0,1-1.164-1.516h0a1.352,1.352,0,0,1,1.517-1.164l1,.13A1.353,1.353,0,0,1,315,203.353h0A1.352,1.352,0,0,1,313.479,204.518Z" transform="translate(-311.307 -201.693)" opacity="0.4" style="isolation: isolate"/>
              </g>
            </g>
            <path id="Path_181" data-name="Path 181" d="M325.317,213.848l-7.384,7.253,2.952,8.887,10.273-11.308Z" transform="translate(-200.125 -148.122)" fill="#9549ad"/>
            <path id="Path_182" data-name="Path 182" d="M316.262,215.068l1.195,5.583-3.825,7.894-2.382-10.256Z" transform="translate(-201.748 -147.825)" fill="#9549ad"/>
            <path id="Path_183" data-name="Path 183" d="M322.6,225.414l4.289-15.7s-2.078-3.91-1.629-4.727,2.682-11.358,4.273-12.5,8.133.811,8.795,1.88-6.268,15.352-6.268,15.352l-2.527,17Z" transform="translate(-198.992 -153.392)" fill="#e4897b"/>
            <g id="Group_84" data-name="Group 84" transform="translate(117.675 60.562)">
              <path id="Path_184" data-name="Path 184" d="M349.166,223.476c11.8,12.078-11.851,39.441-25.4,38.276s.338-50.783.338-50.783l8.679,1.428s-3.046,21.472-2.085,23.157S345.2,219.416,349.166,223.476Z" transform="translate(-317.826 -209.382)" fill="#9549ad"/>
              <path id="Path_185" data-name="Path 185" d="M349.166,223.476c11.8,12.078-11.851,39.441-25.4,38.276s.338-50.783.338-50.783l8.679,1.428s-3.046,21.472-2.085,23.157S345.2,219.416,349.166,223.476Z" transform="translate(-317.826 -209.382)" opacity="0.2" style="isolation: isolate"/>
              <path id="Path_186" data-name="Path 186" d="M322.552,209.692l-1.286,4.1,12.092,1.067v-3.577Z" transform="translate(-316.991 -209.692)" fill="#9549ad"/>
            </g>
            <g id="Group_85" data-name="Group 85" transform="translate(99.031 90.306)">
              <rect id="Rectangle_40" data-name="Rectangle 40" width="6.866" height="11.212" rx="0.791" transform="translate(0 2.704)" fill="#fff" opacity="0.6" style="isolation: isolate"/>
              <rect id="Rectangle_41" data-name="Rectangle 41" width="5.572" height="7.62" transform="translate(0.41 3.441)" opacity="0.2" style="isolation: isolate"/>
              <rect id="Rectangle_42" data-name="Rectangle 42" width="1.229" height="4.491" transform="translate(2.704)" fill="#263238"/>
            </g>
            <path id="Path_187" data-name="Path 187" d="M223.843,392.021a11.216,11.216,0,0,1,3.945-1h0s4.719-2.778,9.4-13.571l5.261-.03a4.336,4.336,0,0,1,4.041,2.894,2.477,2.477,0,0,1,.149.728,29.634,29.634,0,0,1-.4,3.792c-.473,3.935-3.076,12.375-3.076,12.375l-.891-.226,1.621-7.85c.538-2.667-2.263-.091-3.563,2.6s-3.293,5.4-9.1,4.069C224.449,394.214,221.72,393.238,223.843,392.021Z" transform="translate(-223.138 -108.414)" fill="#9549ad"/>
            <path id="Path_188" data-name="Path 188" d="M237.229,375.188s-6.568,13.746-10.35,16.4c0,0,5.07,3.025,10.35-3.706,6.828-8.7,8.5-6.272,8.5-6.272a24.613,24.613,0,0,0-.823-4.435C243.88,374.364,237.229,375.188,237.229,375.188Z" transform="translate(-222.229 -108.983)" fill="#e4897b"/>
            <path id="Path_189" data-name="Path 189" d="M282.026,419.176a11.176,11.176,0,0,1,3.594-1.909h0s3.926-3.819,5.912-15.413l5.1-1.278a4.337,4.337,0,0,1,4.613,1.854,2.443,2.443,0,0,1,.317.671,29.78,29.78,0,0,1,.507,3.779c.474,3.935-.053,12.752-.053,12.752l-.92-.009-.287-8.009c-.108-2.719-2.22.449-2.845,3.369s-1.92,6.024-7.879,6.111C283.135,421.162,280.253,420.861,282.026,419.176Z" transform="translate(-208.966 -102.819)" fill="#9549ad"/>
            <path id="Path_190" data-name="Path 190" d="M290.984,399.39s-3.122,14.912-6.167,18.387c0,0,5.643,1.735,9.177-6.056,4.568-10.074,6.768-8.109,6.768-8.109a24.593,24.593,0,0,0-1.851-4.114C297.249,397.013,290.984,399.39,290.984,399.39Z" transform="translate(-208.164 -103.329)" fill="#e4897b"/>
          </g>
        </g>
        <g id="Speech_bubble" data-name="Speech bubble" transform="translate(271.132 61.564)">
          <g id="Group_88" data-name="Group 88">
            <rect id="Rectangle_43" data-name="Rectangle 43" width="55.981" height="31.157" rx="5.065" fill="#9549ad"/>
            <path id="Path_191" data-name="Path 191" d="M357.4,179.361,344.332,197.13l21.091-16.578Z" transform="translate(-342.402 -151.755)" fill="#9549ad"/>
            <g id="Group_87" data-name="Group 87" transform="translate(11.823 13.746)">
              <path id="Path_192" data-name="Path 192" d="M355.96,170.041a1.834,1.834,0,1,1-1.833-1.833A1.833,1.833,0,0,1,355.96,170.041Z" transform="translate(-352.293 -168.208)" fill="#fff"/>
              <path id="Path_193" data-name="Path 193" d="M363.649,170.041a1.834,1.834,0,1,1-1.833-1.833A1.832,1.832,0,0,1,363.649,170.041Z" transform="translate(-350.426 -168.208)" fill="#fff"/>
              <path id="Path_194" data-name="Path 194" d="M371.338,170.041a1.834,1.834,0,1,1-1.833-1.833A1.832,1.832,0,0,1,371.338,170.041Z" transform="translate(-348.56 -168.208)" fill="#fff"/>
              <path id="Path_195" data-name="Path 195" d="M379.027,170.041a1.834,1.834,0,1,1-1.833-1.833A1.832,1.832,0,0,1,379.027,170.041Z" transform="translate(-346.693 -168.208)" fill="#fff"/>
            </g>
          </g>
        </g>
        <g id="Bird" transform="translate(55.734 0)">
          <g id="Group_93" data-name="Group 93">
            <g id="Group_89" data-name="Group 89" transform="translate(58.23 29.385)">
              <rect id="Rectangle_44" data-name="Rectangle 44" width="38.589" height="24.254" rx="1.385" transform="translate(11.501 0) rotate(28.306)" fill="#9549ad"/>
              <rect id="Rectangle_45" data-name="Rectangle 45" width="38.589" height="24.254" rx="1.385" transform="translate(11.501 0) rotate(28.306)" fill="#fff" opacity="0.7" style="isolation: isolate"/>
              <path id="Path_196" data-name="Path 196" d="M224.253,133.692l9.681,18.078a3.946,3.946,0,0,0,3.87,2.065l20.15-1.992-20.512,3.021a4.206,4.206,0,0,1-4.424-2.384Z" transform="translate(-214.384 -130.662)" opacity="0.2" style="isolation: isolate"/>
            </g>
            <g id="Group_90" data-name="Group 90" transform="translate(44.584)">
              <path id="Path_197" data-name="Path 197" d="M205.345,136.656c.329-6.913,5.447-20.845,11.674-25.106s2.13,1.639,2.13,1.639,5.9-5.735,9.014-5.573,0,3.769,0,3.769,6.391-3.94,9.342-3.772,0,3.608,0,3.608,5.244-3.768,7.375-1.966-27.2,21.141-30.482,29.007S205.011,143.654,205.345,136.656Z" transform="translate(-205.331 -107.609)" fill="#9549ad"/>
              <path id="Path_198" data-name="Path 198" d="M205.345,136.656c.329-6.913,5.447-20.845,11.674-25.106s2.13,1.639,2.13,1.639,5.9-5.735,9.014-5.573,0,3.769,0,3.769,6.391-3.94,9.342-3.772,0,3.608,0,3.608,5.244-3.768,7.375-1.966-27.2,21.141-30.482,29.007S205.011,143.654,205.345,136.656Z" transform="translate(-205.331 -107.609)" fill="#fff" opacity="0.4" style="isolation: isolate"/>
            </g>
            <g id="Group_91" data-name="Group 91" transform="translate(66.761 28.026)">
              <path id="Path_199" data-name="Path 199" d="M226.207,130.16l3.92,2.51a.322.322,0,0,1-.2.592l-4.116-.319.353,3.159a.352.352,0,0,1-.615.272l-2.374-2.687Z" transform="translate(-223.176 -130.16)" fill="#9549ad"/>
              <path id="Path_200" data-name="Path 200" d="M226.207,130.16l3.92,2.51a.322.322,0,0,1-.2.592l-4.116-.319.353,3.159a.352.352,0,0,1-.615.272l-2.374-2.687Z" transform="translate(-223.176 -130.16)" fill="#fff" opacity="0.3" style="isolation: isolate"/>
            </g>
            <g id="Group_92" data-name="Group 92" transform="translate(14.811 10.319)">
              <path id="Path_201" data-name="Path 201" d="M181.374,118.058s5.407-3.772,13.6-1.314c0,0,2.356,10.817,8.8,14.422,3.538,1.98,12.206,1.809,19.06-.41,8.141-2.636,12.127-2.636,13.6.41,1.4,2.884-.163,6.227-6.39,7.7S218.9,151.16,207.594,151.324s-17.259-11.175-14.421-21.14A30.008,30.008,0,0,0,181.374,118.058Z" transform="translate(-181.374 -115.913)" fill="#9549ad"/>
              <path id="Path_202" data-name="Path 202" d="M181.374,118.058s5.407-3.772,13.6-1.314c0,0,2.356,10.817,8.8,14.422,3.538,1.98,12.206,1.809,19.06-.41,8.141-2.636,12.127-2.636,13.6.41,1.4,2.884-.163,6.227-6.39,7.7S218.9,151.16,207.594,151.324s-17.259-11.175-14.421-21.14A30.008,30.008,0,0,0,181.374,118.058Z" transform="translate(-181.374 -115.913)" fill="#fff" opacity="0.5" style="isolation: isolate"/>
            </g>
            <path id="Path_203" data-name="Path 203" d="M223.392,129.943a.553.553,0,1,1-.553-.553A.553.553,0,0,1,223.392,129.943Z" transform="translate(-156.631 -102.321)" fill="#263238"/>
            <path id="Path_204" data-name="Path 204" d="M207.863,142.893c-6.677,1.822-21.508,1.254-27.484-3.354s.9-2.533.9-2.533-7.276-3.841-8.082-6.854,3.585-1.163,3.585-1.163-5.72-4.863-6.472-7.72,3.432-1.115,3.432-1.115-5.2-3.824-4.147-6.406,28.505,19.35,37,20.039S214.623,141.05,207.863,142.893Z" transform="translate(-169.456 -106.17)" fill="#9549ad"/>
            <path id="Path_205" data-name="Path 205" d="M207.863,142.893c-6.677,1.822-21.508,1.254-27.484-3.354s.9-2.533.9-2.533-7.276-3.841-8.082-6.854,3.585-1.163,3.585-1.163-5.72-4.863-6.472-7.72,3.432-1.115,3.432-1.115-5.2-3.824-4.147-6.406,28.505,19.35,37,20.039S214.623,141.05,207.863,142.893Z" transform="translate(-169.456 -106.17)" fill="#fff" opacity="0.4" style="isolation: isolate"/>
          </g>
        </g>
        <g id="Desk" transform="translate(0 104.553)">
          <g id="Group_104" data-name="Group 104">
            <g id="Group_94" data-name="Group 94" transform="translate(98.846 76.05)">
              <path id="Path_207" data-name="Path 207" d="M204.146,257.569l1.227-4.635h50.4l23.207,2.317.883,2.317Z" transform="translate(-204.146 -252.934)" fill="#263238"/>
              <path id="Path_208" data-name="Path 208" d="M255.768,252.934v4.635H204.146l1.227-4.635Z" transform="translate(-204.146 -252.934)" opacity="0.4" style="isolation: isolate"/>
            </g>
            <g id="Group_95" data-name="Group 95" transform="translate(49.701)">
              <path id="Path_209" data-name="Path 209" d="M255.245,245.6a3.97,3.97,0,0,1-4,4.437h-77.2a4.958,4.958,0,0,1-4.834-4.437l-4.586-49.424a4.234,4.234,0,0,1,.1-1.442,3.942,3.942,0,0,1,3.9-3h77.2a4.96,4.96,0,0,1,4.834,4.437Z" transform="translate(-164.602 -191.739)" fill="#2a2a2a"/>
              <path id="Path_210" data-name="Path 210" d="M250.97,249.452H174.043a4.958,4.958,0,0,1-4.834-4.437l-4.586-49.424a4.234,4.234,0,0,1,.1-1.442h76.926a4.976,4.976,0,0,1,4.833,4.437l4.587,49.424A4.267,4.267,0,0,1,250.97,249.452Z" transform="translate(-164.602 -191.154)" fill="#262323" style="isolation: isolate"/>
              <path id="Path_211" data-name="Path 211" d="M194.59,214.257H210.56L206.3,259.982l25.255,3.792v3.184h-53.19v-3.184l10.9-3.792Z" transform="translate(-161.26 -186.273)" fill="#2a2a2a"/>
              <path id="Path_212" data-name="Path 212" d="M208.432,214.257,196.6,266.232l-9.464-.282,5.325-51.693Z" transform="translate(-159.131 -186.273)" fill="#fff" opacity="0.09" style="isolation: isolate"/>
            </g>
            <g id="Group_102" data-name="Group 102" transform="translate(0 80.686)">
              <g id="Group_96" data-name="Group 96" transform="translate(77.633 8.899)">
                <path id="Path_213" data-name="Path 213" d="M208.372,454.273h-7.613L187.08,263.825h10.1Z" transform="translate(-187.076 -263.825)" fill="#263238"/>
                <path id="Path_214" data-name="Path 214" d="M208.378,454.213H200.76L187.748,273.225l-.671-9.153h10.1l.547,9.153Z" transform="translate(-187.077 -263.765)" fill="#fff" opacity="0.4" style="isolation: isolate"/>
                <path id="Path_215" data-name="Path 215" d="M197.728,272.771h-9.979l-.671-8.7h10.1Z" transform="translate(-187.077 -263.765)" opacity="0.2" style="isolation: isolate"/>
              </g>
              <g id="Group_97" data-name="Group 97" transform="translate(145.945 8.899)">
                <path id="Path_216" data-name="Path 216" d="M250.9,454.273h-7.613l-1.243-190.448h10.1Z" transform="translate(-242.046 -263.825)" fill="#263238"/>
                <path id="Path_217" data-name="Path 217" d="M252.151,264.072l-.2,30.727-1.044,159.414H243.29L242.246,294.8l-.2-30.727Z" transform="translate(-242.045 -263.765)" fill="#fff" opacity="0.5" style="isolation: isolate"/>
                <path id="Path_218" data-name="Path 218" d="M252.151,264.072l-.2,31.069h-9.706l-.2-31.069Z" transform="translate(-242.045 -263.765)" opacity="0.2" style="isolation: isolate"/>
              </g>
              <g id="Group_98" data-name="Group 98" transform="translate(214.336 8.899)">
                <path id="Path_219" data-name="Path 219" d="M318.373,454.273h-7.613L297.08,263.825h10.1Z" transform="translate(-297.077 -263.825)" fill="#263238"/>
                <path id="Path_220" data-name="Path 220" d="M318.378,454.213H310.76L297.748,273.225l-.671-9.153h10.1l.547,9.153Z" transform="translate(-297.077 -263.765)" fill="#fff" opacity="0.5" style="isolation: isolate"/>
                <path id="Path_221" data-name="Path 221" d="M307.728,272.771h-9.979l-.671-8.7h10.1Z" transform="translate(-297.077 -263.765)" opacity="0.2" style="isolation: isolate"/>
              </g>
              <g id="Group_99" data-name="Group 99" transform="translate(4.221 8.899)">
                <path id="Path_222" data-name="Path 222" d="M135.619,454.273h-7.613L139.2,263.825h10.1Z" transform="translate(-128.005 -263.825)" fill="#263238"/>
                <path id="Path_223" data-name="Path 223" d="M149.3,264.072l-.671,9.153L135.613,454.213h-7.606l10.638-180.988.547-9.153Z" transform="translate(-128.005 -263.765)" fill="#fff" opacity="0.5" style="isolation: isolate"/>
                <path id="Path_224" data-name="Path 224" d="M137.114,264.072h10.1l-.671,8.7h-9.979Z" transform="translate(-125.927 -263.765)" opacity="0.2" style="isolation: isolate"/>
              </g>
              <g id="Group_100" data-name="Group 100" transform="translate(7.407 4.13)">
                <path id="Rectangle_46" data-name="Rectangle 46" d="M0,0H225.04a0,0,0,0,1,0,0V7.377a2.162,2.162,0,0,1-2.162,2.162H2.162A2.162,2.162,0,0,1,0,7.377V0A0,0,0,0,1,0,0Z" fill="#9549ad"/>
                <path id="Rectangle_47" data-name="Rectangle 47" d="M0,0H225.04a0,0,0,0,1,0,0V7.377a2.162,2.162,0,0,1-2.162,2.162H2.162A2.162,2.162,0,0,1,0,7.377V0A0,0,0,0,1,0,0Z" fill="#fff" opacity="0.6" style="isolation: isolate"/>
              </g>
              <rect id="Rectangle_48" data-name="Rectangle 48" width="225.04" height="4.769" transform="translate(7.407 4.13)" opacity="0.2" style="isolation: isolate"/>
              <g id="Group_101" data-name="Group 101">
                <path id="Path_225" data-name="Path 225" d="M361.774,262.038H127.3a2.687,2.687,0,0,1-2.688-2.687h0a2.687,2.687,0,0,1,2.688-2.687H361.774a2.687,2.687,0,0,1,2.687,2.687h0A2.687,2.687,0,0,1,361.774,262.038Z" transform="translate(-124.609 -256.664)" fill="#9549ad"/>
                <path id="Path_226" data-name="Path 226" d="M361.774,262.038H127.3a2.687,2.687,0,0,1-2.688-2.687h0a2.687,2.687,0,0,1,2.688-2.687H361.774a2.687,2.687,0,0,1,2.687,2.687h0A2.687,2.687,0,0,1,361.774,262.038Z" transform="translate(-124.609 -256.664)" fill="#fff" opacity="0.6" style="isolation: isolate"/>
              </g>
            </g>
            <g id="Group_103" data-name="Group 103" transform="translate(177.117 59.809)">
              <path id="Path_227" data-name="Path 227" d="M270.806,251.118l2.888-4.324a3.1,3.1,0,0,1,2.581-1.379h3.657a3.1,3.1,0,0,1,.9.133l13.034,3.951a3.1,3.1,0,0,1,1.767,1.383l1.87,3.144Z" transform="translate(-266.236 -238.517)" fill="#9549ad"/>
              <path id="Path_228" data-name="Path 228" d="M297.5,254.026l-18.977-2.064-7.717-.844,2.883-4.326a3.109,3.109,0,0,1,2.585-1.378h3.654a3.255,3.255,0,0,1,.907.135l.286.088,12.738,3.865a3.073,3.073,0,0,1,1.777,1.379Z" transform="translate(-266.236 -238.518)" opacity="0.2" style="isolation: isolate"/>
              <path id="Path_229" data-name="Path 229" d="M296,253.983l-18.977-2.064,2.6-6.324,12.738,3.865a3.073,3.073,0,0,1,1.777,1.379Z" transform="translate(-264.728 -238.474)" opacity="0.2" style="isolation: isolate"/>
              <path id="Path_230" data-name="Path 230" d="M307.418,258.118v.41H267.129l1.491-5.829a5.01,5.01,0,0,1,4.834-3.716h17.871a4.887,4.887,0,0,1,1.739.311l2.237.833,8.873,3.306A5,5,0,0,1,307.418,258.118Z" transform="translate(-267.129 -237.651)" fill="#9549ad"/>
              <path id="Path_231" data-name="Path 231" d="M302.779,257.927v.41H286.238l.884-6.3a2.647,2.647,0,0,1,3.541-2.1l8.873,3.306A5,5,0,0,1,302.779,257.927Z" transform="translate(-262.49 -237.46)" opacity="0.2" style="isolation: isolate"/>
              <path id="Path_232" data-name="Path 232" d="M288.311,256.458l5.263-15.793a1.171,1.171,0,0,1,1.648-.67h0a1.173,1.173,0,0,1,.594,1.338l-4.432,16.859S288.434,259.386,288.311,256.458Z" transform="translate(-261.987 -239.865)" fill="#2a2a2a"/>
              <path id="Path_233" data-name="Path 233" d="M271.262,256.056h-2.335l.451-2.294h2.335Z" transform="translate(-266.693 -236.491)" opacity="0.2" style="isolation: isolate"/>
              <path id="Path_234" data-name="Path 234" d="M274.064,255.984h-2.335l.451-2.294h2.335Z" transform="translate(-266.012 -236.509)" opacity="0.2" style="isolation: isolate"/>
            </g>
          </g>
        </g>
      </g>
    </g>
    <g id="Mask_Group_10" data-name="Mask Group 10" transform="translate(0 64)" clip-path="url(#clip-path)">
      <path id="Path_237" data-name="Path 237" d="M370.213,5498s-98.355,91.668-151.4,25.362,40.889-196.71,4.42-248.651S97.25,5169.725,2.21,5338.808" transform="translate(-90 12)" fill="none" stroke="#9549ad" stroke-width="1" stroke-dasharray="6" opacity="0.43"/>
    </g>
  </g>
</svg>
