<?xml version="1.0" encoding="UTF-8"?>
<svg width="15px" height="15px" viewBox="0 0 15 15" version="1.1" xmlns="http://www.w3.org/2000/svg" xmlns:xlink="http://www.w3.org/1999/xlink">
    <!-- Generator: Sketch 43.2 (39069) - http://www.bohemiancoding.com/sketch -->
    <title>Shape</title>
    <desc>Created with Sketch.</desc>
    <defs></defs>
    <g id="Page-1" stroke="none" stroke-width="1" fill="none" fill-rule="evenodd" fill-opacity="0.5">
        <g id="Artboard-1" transform="translate(-153.000000, -599.000000)" fill="#FFFFFF">
            <path d="M153,604.60815 C153,607.707927 155.533014,610.216299 158.663243,610.216299 C161.793472,610.216299 164.326487,607.707927 164.326487,604.60815 C164.326487,601.508372 161.793472,599 158.663243,599 C155.533014,599 153,601.508372 153,604.60815 L153,604.60815 Z M155.059361,604.60815 C155.059361,602.640199 156.67596,601.039327 158.663243,601.039327 C160.650527,601.039327 162.267125,602.640199 162.267125,604.60815 C162.267125,606.5761 160.650527,608.176972 158.663243,608.176972 C156.67596,608.176972 155.059361,606.5761 155.059361,604.60815 L155.059361,604.60815 Z M163.111464,611.052423 L165.82982,613.744335 C166.138724,614.050234 166.808017,614.091021 167.353748,613.815712 C167.940666,613.520009 168.167195,612.327003 167.868588,611.949727 L165.191418,609.247619 C164.728062,608.676607 163.811646,608.686804 163.214432,609.278209 C162.678998,609.808434 162.658404,610.603771 163.111464,611.052423 L163.111464,611.052423 Z" id="Shape"></path>
        </g>
    </g>
</svg>