<svg xmlns="http://www.w3.org/2000/svg" width="18.505" height="18.214" viewBox="0 0 18.505 18.214">
  <path id="Path_449" data-name="Path 449" d="M11.634-34.974a10.5,10.5,0,0,1,3.453.571,8.418,8.418,0,0,1,2.93,1.727,8.385,8.385,0,0,1,2.043,2.906,10.12,10.12,0,0,1,.766,4.085q0,.34-.036.9a9.658,9.658,0,0,1-.158,1.192,8.138,8.138,0,0,1-.365,1.289,4.3,4.3,0,0,1-.669,1.192,3.2,3.2,0,0,1-1.07.863,3.366,3.366,0,0,1-1.544.328,2.953,2.953,0,0,1-1.106-.182,2.134,2.134,0,0,1-.717-.45,1.766,1.766,0,0,1-.4-.608,3.081,3.081,0,0,1-.182-.657,5.238,5.238,0,0,1-1.86,1.192,6.317,6.317,0,0,1-2.274.413,3.771,3.771,0,0,1-2.784-.961A3.372,3.372,0,0,1,6.7-23.666a3.443,3.443,0,0,1,.4-1.727,3.311,3.311,0,0,1,1.033-1.131,4.212,4.212,0,0,1,1.447-.608,7.6,7.6,0,0,1,1.666-.182,6.217,6.217,0,0,1,1.617.182,8.234,8.234,0,0,1,1.009.328,4.409,4.409,0,0,0-.122-1.07,1.916,1.916,0,0,0-.426-.827,2.033,2.033,0,0,0-.827-.535,3.845,3.845,0,0,0-1.325-.195,5.417,5.417,0,0,0-1.812.28,4.131,4.131,0,0,0-1.35.766L7.329-30.4a7.376,7.376,0,0,1,4.231-1.216,5.492,5.492,0,0,1,2.578.5,3.457,3.457,0,0,1,1.374,1.252,4.047,4.047,0,0,1,.547,1.666,16.209,16.209,0,0,1,.1,1.714v1.994q0,.535.024,1.058a3.806,3.806,0,0,0,.146.924,1.611,1.611,0,0,0,.365.657.864.864,0,0,0,.657.255,1.232,1.232,0,0,0,1-.474,3.176,3.176,0,0,0,.584-1.143A7.763,7.763,0,0,0,19.2-24.6q.073-.717.073-1.179a8.4,8.4,0,0,0-.547-3.064,7.071,7.071,0,0,0-1.568-2.444A7.243,7.243,0,0,0,14.7-32.907a8.381,8.381,0,0,0-3.186-.584,8.283,8.283,0,0,0-3.137.571,7.068,7.068,0,0,0-2.407,1.581,7.019,7.019,0,0,0-1.544,2.407,8.3,8.3,0,0,0-.547,3.052,8.514,8.514,0,0,0,.511,2.967,7.372,7.372,0,0,0,1.459,2.432,6.728,6.728,0,0,0,2.3,1.641,7.483,7.483,0,0,0,3.052.6,6.833,6.833,0,0,0,2.055-.267q.839-.267,1.763-.657l.438,1.435a9.9,9.9,0,0,1-2.116.73,10.061,10.061,0,0,1-2.189.243,8.967,8.967,0,0,1-3.429-.657A8.551,8.551,0,0,1,4.91-19.265a8.578,8.578,0,0,1-1.9-2.882,9.882,9.882,0,0,1-.693-3.781,9.3,9.3,0,0,1,.766-3.879A8.316,8.316,0,0,1,5.141-32.64a8.923,8.923,0,0,1,2.967-1.739A10.459,10.459,0,0,1,11.634-34.974Zm1.094,12.4a2.225,2.225,0,0,0,.815-.632,1.386,1.386,0,0,0,.3-.875v-.973a10.961,10.961,0,0,0-1.058-.292,6.566,6.566,0,0,0-1.52-.17,2.877,2.877,0,0,0-1.69.426,1.572,1.572,0,0,0-.6,1.374,1.561,1.561,0,0,0,.438,1.192,1.811,1.811,0,0,0,1.289.413,5.35,5.35,0,0,0,.985-.109A3.7,3.7,0,0,0,12.728-22.572Z" transform="translate(-2.32 34.974)" fill="#fff"/>
</svg>
