<svg id="Group_368" data-name="Group 368" xmlns="http://www.w3.org/2000/svg" width="40.754" height="40.754" viewBox="0 0 40.754 40.754">
  <path id="Path_614" data-name="Path 614" d="M20.377,0A20.377,20.377,0,1,1,0,20.377,20.377,20.377,0,0,1,20.377,0Z" transform="translate(0)" fill="#fff" opacity="0.1"/>
  <g id="Group_364" data-name="Group 364" transform="translate(15.426 10.615)">
    <path id="Path_611" data-name="Path 611" d="M-3689.761,229.749h-2.382v-3.282h2.372c0-.11,0-.2,0-.286,0-.819,0-1.639,0-2.458a4.2,4.2,0,0,1,.721-2.443,3.925,3.925,0,0,1,2.23-1.534,5.417,5.417,0,0,1,1.641-.217c.785.018,1.57.05,2.392.077-.026,1.056-.052,2.07-.077,3.117h-.258c-.658,0-1.317-.015-1.975,0a1.911,1.911,0,0,0-.707.156.888.888,0,0,0-.472.872c-.017.883-.006,1.768-.006,2.651,0,.011.01.022.024.05h3.489c-.052,1.1-.1,2.184-.156,3.288h-3.356v9.006h-3.477Z" transform="translate(3692.143 -219.527)" fill="#fff"/>
  </g>
</svg>
