
<svg width="490px" height="592px" viewBox="0 0 490 592" version="1.1" xmlns="http://www.w3.org/2000/svg" xmlns:xlink="http://www.w3.org/1999/xlink">
    <!-- Generator: Sketch 43.2 (39069) - http://www.bohemiancoding.com/sketch -->
    <desc>Created with Sketch.</desc>
    <defs></defs>
    <g id="Page-1" stroke="none" stroke-width="1" fill="none" fill-rule="evenodd">
        <g id="church_icon-copy" transform="translate(0.000000, -3.000000)">
            <g id="church-building" transform="translate(0.000000, 105.548532)">
                <path d="M117.62289,226.175425 L117.62289,310.991209 L205.840058,310.991209 L205.840058,226.175425 L117.62289,226.175425 L117.62289,226.175425 Z M235.24578,0 L205.840058,28.2719281 L0,226.175425 L29.4057225,254.447353 L58.811445,226.175425 L58.811445,395.806994 L235.24578,395.806994 L352.86867,395.806994 L411.680115,395.806994 L411.680115,226.175425 L441.085838,254.447353 L470.49156,226.175425 L264.651503,28.2719281 L235.24578,0 L235.24578,0 Z M87.041307,197.906098 L97.3462025,188.092852 L236.315079,62.7636804 L380.289191,194.261178 L385,198.747233 L385,367.535066 L353.202037,367.254687 L353.202037,224.82243 L235.431802,224.82243 L235.431802,366.133173 L86.7468814,365.011659 L87.041307,197.906098 L87.041307,197.906098 Z M323.462948,254.447353 L323.462948,367.535066 L264.651503,367.535066 L264.651503,254.447353 L323.462948,254.447353 L323.462948,254.447353 Z" id="Shape-Copy-4" fill="#9549AD"></path>
                <rect id="Rectangle-3" fill="#FFFFFF" x="88" y="197.903497" width="297" height="169.631569"></rect>
                <polygon id="Triangle" fill="#FFFFFF" points="236.5 63 385 198 88 198"></polygon>
            </g>
            <g id="cross" transform="translate(166.055845, 0.000000)" stroke="#9549AD" stroke-width="20" stroke-linecap="square">
                <path d="M69.1899353,13.1935665 L69.1899353,145.129231" id="Line-Copy-7"></path>
                <path d="M13.8379871,59.0037313 L124.541884,59.0037313" id="Line-Copy-8"></path>
            </g>
            <g id="Group-6-Copy" transform="translate(240.000000, 347.000000)" stroke="#BD8AC7" stroke-width="20">
                <circle id="Oval-5" cx="88.5" cy="88.5" r="88.5"></circle>
                <path d="M160.5,158.5 L235.5,233.5" id="Line" stroke-linecap="square"></path>
            </g>
        </g>
    </g>
</svg>