
<svg width="450px" height="515px" viewBox="0 0 450 515" version="1.1" xmlns="http://www.w3.org/2000/svg" xmlns:xlink="http://www.w3.org/1999/xlink">
    <!-- Generator: Sketch 43.2 (39069) - http://www.bohemiancoding.com/sketch -->
    <desc>Created with Sketch.</desc>
    <defs></defs>
    <g id="Page-1" stroke="none" stroke-width="1" fill="none" fill-rule="evenodd">
        <g id="Group-7">
            <g id="Group-4-Copy">
                <g id="Group-3" transform="translate(276.178571, 0.000000)">
                    <path d="M127.372228,103.25 L128.60469,103.25 L128.60469,97.5138889 C128.60469,99.533 128.154573,101.460333 127.372228,103.25 L127.372228,103.25 Z M41.6357683,126.194444 L42.8682299,126.194444 L42.8682299,120.458333 C42.8682299,122.477444 42.4181135,124.404778 41.6357683,126.194444 L41.6357683,126.194444 Z M21.434115,137.666667 C30.768672,137.666667 38.6885775,132.88275 41.6357683,126.194444 C42.4288306,124.404778 42.8682299,122.477444 42.8682299,120.458333 L42.8682299,53.5179167 L117.887632,38.2598611 L117.887632,82.6 C114.736817,81.1315556 111.071584,80.3055556 107.170575,80.3055556 C95.3389434,80.3055556 85.7364599,88.0148889 85.7364599,97.5138889 C85.7364599,107.012889 95.3389434,114.722222 107.170575,114.722222 C116.505132,114.722222 124.425037,109.938306 127.372228,103.25 C128.16529,101.460333 128.60469,99.533 128.60469,97.5138889 L128.60469,34.4166667 L128.60469,0 L32.1511725,22.9444444 L32.1511725,45.8888889 L32.1511725,57.3611111 L32.1511725,105.544444 C29.0003576,104.076 25.3351239,103.25 21.434115,103.25 C9.60248351,103.25 0,110.959333 0,120.458333 C0,129.957333 9.60248351,137.666667 21.434115,137.666667 L21.434115,137.666667 Z" id="Shape-Copy-2" fill="#9549AD"></path>
                    <rect id="Rectangle-5" fill="#F2F2F2" x="46.0297619" y="0" width="69.0446429" height="68.8333333"></rect>
                </g>
                <path d="M243.422414,294.201984 C293.619838,301.37083 327.200184,332.435828 333.777778,343.701157 C346.240586,364.524947 345.202019,413 345.202019,413 L0.0514549839,413 C0.0514549839,413 -1.67949067,361.452585 14.9375876,340.628795 C24.2846942,331.753081 53.7107704,301.37083 103.908194,293.86061 C153.759429,286.691764 138.527108,232.071987 140.258053,232.754734 C141.988999,233.778855 139.911864,221.148031 139.911864,221.148031 C139.911864,221.148031 103.562005,186.669297 103.908194,155.604298 C104.600573,124.197926 103.908194,108.153366 103.908194,108.153366 C103.908194,108.153366 109.79341,34.4166667 161.029401,34.4166667 L189.763099,48.0716111 C235.806253,48.0716111 243.422414,108.153366 243.422414,108.153366 L243.422414,160.042155 C243.422414,160.042155 237.537199,204.079351 208.803501,220.12391 C208.803501,220.12391 206.726366,232.754734 208.457312,231.730613 C210.188258,231.047866 193.571179,286.691764 243.422414,294.201984 L243.422414,294.201984 Z" id="Shape-Copy-2" fill="#9549AD"></path>
            </g>
            <g id="Group-6" transform="translate(200.000000, 267.000000)" stroke="#BD8AC7" stroke-width="20">
                <circle id="Oval-5" cx="88.5" cy="88.5" r="88.5"></circle>
                <path d="M160.5,158.5 L235.5,233.5" id="Line" stroke-linecap="square"></path>
            </g>
        </g>
    </g>
</svg>