<svg id="Group_485" data-name="Group 485" xmlns="http://www.w3.org/2000/svg" width="40.211" height="40.754" viewBox="0 0 40.211 40.754">
  <path id="Path_613" data-name="Path 613" d="M20.105,0A20.242,20.242,0,0,1,40.211,20.377,20.242,20.242,0,0,1,20.105,40.754,20.242,20.242,0,0,1,0,20.377,20.242,20.242,0,0,1,20.105,0Z" fill="#fff" opacity="0.1"/>
  <g id="Group_362" data-name="Group 362" transform="translate(10.481 10.62)">
    <path id="Path_607" data-name="Path 607" d="M-3647.816,468.53h-1.715q.023,2.926-.03,5.852a3.312,3.312,0,0,1-3.291,3.479c-2.306.12-4.62.093-6.93.106a14.316,14.316,0,0,1-2.224-.123,3.353,3.353,0,0,1-3.01-3.418c-.055-1.416-.01-2.837-.01-4.255h-.012c0-.546-.009-1.093-.014-1.64h-1.709q-.012,2.765.022,5.531a5.752,5.752,0,0,0,1.1,3.536,5.257,5.257,0,0,0,4.289,2.006c2.176.057,4.354.069,6.531.068a20.038,20.038,0,0,0,2.426-.152,4.808,4.808,0,0,0,4.32-3.852,11.747,11.747,0,0,0,.254-2.571C-3647.814,471.575-3647.8,470.051-3647.816,468.53Z" transform="translate(3666.766 -460.638)" fill="#fff"/>
    <path id="Path_608" data-name="Path 608" d="M-3666.756,382.44h1.715q-.024-2.926.029-5.852a3.312,3.312,0,0,1,3.291-3.479c2.306-.12,4.62-.093,6.93-.106a14.318,14.318,0,0,1,2.224.123,3.353,3.353,0,0,1,3.01,3.418c.055,1.416.011,2.837.011,4.255h.012c0,.546.009,1.093.014,1.64h1.709q.014-2.765-.021-5.531a5.746,5.746,0,0,0-1.1-3.536,5.254,5.254,0,0,0-4.289-2.006c-2.176-.057-4.354-.069-6.531-.068a20.053,20.053,0,0,0-2.427.152,4.807,4.807,0,0,0-4.319,3.852,11.686,11.686,0,0,0-.254,2.571C-3666.759,379.4-3666.777,380.919-3666.756,382.44Z" transform="translate(3666.766 -371.3)" fill="#fff"/>
    <path id="Path_609" data-name="Path 609" d="M-3600.59,431.937a4.807,4.807,0,0,0-4.4-3.232,4.869,4.869,0,0,0-4.792,3.232,5.053,5.053,0,0,0-.275,1.6,4.875,4.875,0,0,0,4.82,4.924,4.874,4.874,0,0,0,4.925-4.862A4.833,4.833,0,0,0-3600.59,431.937Zm-4.58,4.822a3.2,3.2,0,0,1-3.2-3.151,3.154,3.154,0,0,1,.461-1.671,3.186,3.186,0,0,1,2.717-1.549,3.208,3.208,0,0,1,2.748,1.549,3.164,3.164,0,0,1,.457,1.644A3.2,3.2,0,0,1-3605.169,436.759Z" transform="translate(3614.659 -424.045)" fill="#fff"/>
    <path id="Path_610" data-name="Path 610" d="M-3499.037,413.346a1.131,1.131,0,0,1-1.136,1.123,1.118,1.118,0,0,1-1.128-1.126,1.117,1.117,0,0,1,1.131-1.123A1.121,1.121,0,0,1-3499.037,413.346Z" transform="translate(3514.731 -408.898)" fill="#fff"/>
  </g>
</svg>
