<svg xmlns="http://www.w3.org/2000/svg" width="18.505" height="18.506" viewBox="0 0 18.505 18.506">
  <g id="Group_2" data-name="Group 2" transform="translate(0)">
    <path id="Path_2" data-name="Path 2" d="M14.075,56.6a1.3,1.3,0,0,0-1.96,0c-.458.454-.917.909-1.367,1.371a.27.27,0,0,1-.377.069c-.3-.162-.612-.293-.9-.47a14.216,14.216,0,0,1-3.427-3.119,8.12,8.12,0,0,1-1.228-1.968.282.282,0,0,1,.069-.362c.458-.443.9-.9,1.356-1.352a1.3,1.3,0,0,0,0-2.006c-.358-.362-.716-.716-1.074-1.078s-.736-.743-1.109-1.109a1.3,1.3,0,0,0-1.96,0c-.462.454-.9.92-1.375,1.367a2.232,2.232,0,0,0-.7,1.506A6.379,6.379,0,0,0,.512,52.2a16.684,16.684,0,0,0,2.961,4.933,18.325,18.325,0,0,0,6.069,4.748,8.777,8.777,0,0,0,3.362.978,2.464,2.464,0,0,0,2.114-.8c.393-.439.836-.839,1.252-1.259a1.31,1.31,0,0,0,.008-1.995Q15.18,57.7,14.075,56.6Z" transform="translate(-0.006 -44.361)" fill="#fff"/>
    <path id="Path_3" data-name="Path 3" d="M242.028,101.476l1.421-.243a6.378,6.378,0,0,0-5.4-5.233l-.2,1.429a4.929,4.929,0,0,1,4.174,4.047Z" transform="translate(-228.695 -92.303)" fill="#fff"/>
    <path id="Path_4" data-name="Path 4" d="M248.962,3a10.478,10.478,0,0,0-6.007-3l-.2,1.429a9.143,9.143,0,0,1,7.736,7.5l1.421-.243A10.554,10.554,0,0,0,248.962,3Z" transform="translate(-233.406)" fill="#fff"/>
  </g>
</svg>
