<svg xmlns="http://www.w3.org/2000/svg" width="41" height="41" viewBox="0 0 41 41">
  <g id="Group_486" data-name="Group 486" transform="translate(0.236 0.457)">
    <circle id="Ellipse_28" data-name="Ellipse 28" cx="20.5" cy="20.5" r="20.5" transform="translate(-0.236 -0.457)" fill="#fff" opacity="0.1"/>
    <g id="Group_365" data-name="Group 365" transform="translate(10.184 12.943)">
      <path id="Path_612" data-name="Path 612" d="M-3677.491,374.586a4.263,4.263,0,0,1-3.809-2.812l1.658-.073a4.439,4.439,0,0,1-3.147-4.123l1.708.473c-1.764-2.09-2.124-3.8-1.1-5.536a11.92,11.92,0,0,0,8.516,4.3c-.286-2.175.424-3.855,2.456-4.75a4.086,4.086,0,0,1,4.708,1l2.456-.908c-.1.607-.459,1.09-1.54,2.168l2.162-.575c-.351.413-.63.778-.948,1.1s-.685.624-1.023.928c-.143,5.03-2.145,8.973-6.781,11.264a11.844,11.844,0,0,1-11.3-.722A8.6,8.6,0,0,0-3677.491,374.586Z" transform="translate(3683.475 -361.697)" fill="#fff"/>
    </g>
  </g>
</svg>
